<mxfile host="app.diagrams.net" agent="Mozilla/5.0 (Windows NT 10.0; Win64; x64) AppleWebKit/537.36 (KHTML, like Gecko) Chrome/131.0.0.0 Safari/537.36 OPR/116.0.0.0" version="26.0.15">
  <diagram name="Página-1" id="j0MLjyW7Bjyk5XGwfm9u">
    <mxGraphModel grid="1" page="1" gridSize="10" guides="1" tooltips="1" connect="1" arrows="1" fold="1" pageScale="1" pageWidth="827" pageHeight="1169" math="0" shadow="0">
      <root>
        <mxCell id="0" />
        <mxCell id="1" parent="0" />
        <mxCell id="X9rBCf1_obfQTEOSiPtn-5" style="edgeStyle=orthogonalEdgeStyle;rounded=0;orthogonalLoop=1;jettySize=auto;html=1;" edge="1" parent="1" source="X9rBCf1_obfQTEOSiPtn-1" target="X9rBCf1_obfQTEOSiPtn-3">
          <mxGeometry relative="1" as="geometry" />
        </mxCell>
        <mxCell id="X9rBCf1_obfQTEOSiPtn-1" value="INICIO" style="rounded=1;whiteSpace=wrap;html=1;arcSize=50;" vertex="1" parent="1">
          <mxGeometry x="354" y="170" width="120" height="60" as="geometry" />
        </mxCell>
        <mxCell id="X9rBCf1_obfQTEOSiPtn-2" value="FINAL" style="rounded=1;whiteSpace=wrap;html=1;arcSize=50;" vertex="1" parent="1">
          <mxGeometry x="353" y="910" width="120" height="60" as="geometry" />
        </mxCell>
        <mxCell id="X9rBCf1_obfQTEOSiPtn-6" style="edgeStyle=orthogonalEdgeStyle;rounded=0;orthogonalLoop=1;jettySize=auto;html=1;entryX=0.5;entryY=0;entryDx=0;entryDy=0;" edge="1" parent="1" source="X9rBCf1_obfQTEOSiPtn-3" target="X9rBCf1_obfQTEOSiPtn-4">
          <mxGeometry relative="1" as="geometry" />
        </mxCell>
        <mxCell id="X9rBCf1_obfQTEOSiPtn-3" value="Receba o primeiro&amp;nbsp;&lt;div&gt;número&lt;/div&gt;&lt;div&gt;(n1)&lt;/div&gt;" style="shape=parallelogram;perimeter=parallelogramPerimeter;whiteSpace=wrap;html=1;fixedSize=1;" vertex="1" parent="1">
          <mxGeometry x="339" y="270" width="150" height="60" as="geometry" />
        </mxCell>
        <mxCell id="X9rBCf1_obfQTEOSiPtn-8" style="edgeStyle=orthogonalEdgeStyle;rounded=0;orthogonalLoop=1;jettySize=auto;html=1;entryX=0.5;entryY=0;entryDx=0;entryDy=0;" edge="1" parent="1" source="X9rBCf1_obfQTEOSiPtn-4" target="xS0c17PNF6rlJRHLfBap-1">
          <mxGeometry relative="1" as="geometry">
            <mxPoint x="414" y="490" as="targetPoint" />
          </mxGeometry>
        </mxCell>
        <mxCell id="X9rBCf1_obfQTEOSiPtn-4" value="Receba o&amp;nbsp; segundo&lt;div&gt;número&lt;/div&gt;&lt;div&gt;(n2)&lt;/div&gt;" style="shape=parallelogram;perimeter=parallelogramPerimeter;whiteSpace=wrap;html=1;fixedSize=1;" vertex="1" parent="1">
          <mxGeometry x="339" y="370" width="150" height="60" as="geometry" />
        </mxCell>
        <mxCell id="X9rBCf1_obfQTEOSiPtn-14" style="edgeStyle=orthogonalEdgeStyle;rounded=0;orthogonalLoop=1;jettySize=auto;html=1;" edge="1" parent="1" source="X9rBCf1_obfQTEOSiPtn-7" target="X9rBCf1_obfQTEOSiPtn-10">
          <mxGeometry relative="1" as="geometry" />
        </mxCell>
        <mxCell id="X9rBCf1_obfQTEOSiPtn-7" value="O primeiro número&amp;nbsp;&lt;div&gt;é maior que o segundo?&lt;/div&gt;&lt;div&gt;(n1 &amp;gt; n2)&lt;/div&gt;" style="rhombus;whiteSpace=wrap;html=1;" vertex="1" parent="1">
          <mxGeometry x="328" y="690" width="170" height="160" as="geometry" />
        </mxCell>
        <mxCell id="X9rBCf1_obfQTEOSiPtn-15" style="edgeStyle=orthogonalEdgeStyle;rounded=0;orthogonalLoop=1;jettySize=auto;html=1;entryX=0;entryY=0.5;entryDx=0;entryDy=0;" edge="1" parent="1" source="X9rBCf1_obfQTEOSiPtn-9" target="X9rBCf1_obfQTEOSiPtn-2">
          <mxGeometry relative="1" as="geometry">
            <Array as="points">
              <mxPoint x="160" y="940" />
            </Array>
          </mxGeometry>
        </mxCell>
        <mxCell id="X9rBCf1_obfQTEOSiPtn-9" value="O primeiro número&amp;nbsp;&lt;div&gt;é maior que o segundo!&lt;/div&gt;" style="shape=display;whiteSpace=wrap;html=1;" vertex="1" parent="1">
          <mxGeometry x="70" y="730" width="180" height="80" as="geometry" />
        </mxCell>
        <mxCell id="X9rBCf1_obfQTEOSiPtn-16" style="edgeStyle=orthogonalEdgeStyle;rounded=0;orthogonalLoop=1;jettySize=auto;html=1;entryX=1;entryY=0.5;entryDx=0;entryDy=0;" edge="1" parent="1" source="X9rBCf1_obfQTEOSiPtn-10" target="X9rBCf1_obfQTEOSiPtn-2">
          <mxGeometry relative="1" as="geometry">
            <Array as="points">
              <mxPoint x="690" y="940" />
            </Array>
          </mxGeometry>
        </mxCell>
        <mxCell id="X9rBCf1_obfQTEOSiPtn-10" value="O segundo número&lt;div&gt;é maior que o primeiro!&lt;/div&gt;" style="shape=display;whiteSpace=wrap;html=1;" vertex="1" parent="1">
          <mxGeometry x="600" y="730" width="180" height="80" as="geometry" />
        </mxCell>
        <mxCell id="X9rBCf1_obfQTEOSiPtn-13" style="edgeStyle=orthogonalEdgeStyle;rounded=0;orthogonalLoop=1;jettySize=auto;html=1;entryX=1;entryY=0.5;entryDx=0;entryDy=0;entryPerimeter=0;" edge="1" parent="1" source="X9rBCf1_obfQTEOSiPtn-7" target="X9rBCf1_obfQTEOSiPtn-9">
          <mxGeometry relative="1" as="geometry" />
        </mxCell>
        <mxCell id="X9rBCf1_obfQTEOSiPtn-17" value="Sim" style="text;html=1;align=center;verticalAlign=middle;resizable=0;points=[];autosize=1;strokeColor=none;fillColor=none;" vertex="1" parent="1">
          <mxGeometry x="300" y="742" width="40" height="30" as="geometry" />
        </mxCell>
        <mxCell id="X9rBCf1_obfQTEOSiPtn-18" value="Não" style="text;html=1;align=center;verticalAlign=middle;resizable=0;points=[];autosize=1;strokeColor=none;fillColor=none;" vertex="1" parent="1">
          <mxGeometry x="483" y="740" width="50" height="30" as="geometry" />
        </mxCell>
        <mxCell id="xS0c17PNF6rlJRHLfBap-2" style="edgeStyle=orthogonalEdgeStyle;rounded=0;orthogonalLoop=1;jettySize=auto;html=1;" edge="1" parent="1" source="xS0c17PNF6rlJRHLfBap-1" target="X9rBCf1_obfQTEOSiPtn-7">
          <mxGeometry relative="1" as="geometry" />
        </mxCell>
        <mxCell id="xS0c17PNF6rlJRHLfBap-4" style="edgeStyle=orthogonalEdgeStyle;rounded=0;orthogonalLoop=1;jettySize=auto;html=1;entryX=1;entryY=0.5;entryDx=0;entryDy=0;entryPerimeter=0;" edge="1" parent="1" source="xS0c17PNF6rlJRHLfBap-1" target="xS0c17PNF6rlJRHLfBap-5">
          <mxGeometry relative="1" as="geometry">
            <mxPoint x="260" y="580" as="targetPoint" />
          </mxGeometry>
        </mxCell>
        <mxCell id="xS0c17PNF6rlJRHLfBap-1" value="Os número são iguais?&lt;div&gt;(n1 == n2)&lt;/div&gt;" style="rhombus;whiteSpace=wrap;html=1;" vertex="1" parent="1">
          <mxGeometry x="329" y="490" width="170" height="160" as="geometry" />
        </mxCell>
        <mxCell id="xS0c17PNF6rlJRHLfBap-3" value="Não" style="text;html=1;align=center;verticalAlign=middle;resizable=0;points=[];autosize=1;strokeColor=none;fillColor=none;" vertex="1" parent="1">
          <mxGeometry x="406" y="640" width="50" height="30" as="geometry" />
        </mxCell>
        <mxCell id="xS0c17PNF6rlJRHLfBap-6" style="edgeStyle=orthogonalEdgeStyle;rounded=0;orthogonalLoop=1;jettySize=auto;html=1;entryX=0;entryY=0.5;entryDx=0;entryDy=0;" edge="1" parent="1" source="xS0c17PNF6rlJRHLfBap-5" target="X9rBCf1_obfQTEOSiPtn-3">
          <mxGeometry relative="1" as="geometry">
            <Array as="points">
              <mxPoint x="170" y="300" />
            </Array>
          </mxGeometry>
        </mxCell>
        <mxCell id="xS0c17PNF6rlJRHLfBap-5" value="Os números são iguais, digite outro número!" style="shape=display;whiteSpace=wrap;html=1;" vertex="1" parent="1">
          <mxGeometry x="70" y="530" width="180" height="80" as="geometry" />
        </mxCell>
        <mxCell id="xS0c17PNF6rlJRHLfBap-7" value="Sim" style="text;html=1;align=center;verticalAlign=middle;resizable=0;points=[];autosize=1;strokeColor=none;fillColor=none;" vertex="1" parent="1">
          <mxGeometry x="297" y="545" width="40" height="30" as="geometry" />
        </mxCell>
      </root>
    </mxGraphModel>
  </diagram>
</mxfile>
